<?xml version="1.0" encoding="UTF-8"?>
<svg id="Layer_2" data-name="Layer 2" xmlns="http://www.w3.org/2000/svg" viewBox="0 0 315.1 216.01">
  <g id="Layer_1-2" data-name="Layer 1">
    <path fill="#444" d="M267.95,130.63c50.28-60.72,51.46-85.9,43.47-96.32-8.52-11.14-32.38-9.86-60.76,3.24-39.03,18.03-75.02,52.68-68.54,84.12-5.1,12.72-11.98,19-15.27,19.4-.98,.12-1.42-.31-1.65-.64-1.44-2.03-.82-8.57,5.22-20.86l.08-.22c.36-1.65-.27-3-1.69-3.6-1.8-.75-4.2-.06-5.34,1.51l-1.47,1.25c-4.9,4.16-9.8,8.31-14.69,12.48-.66-.31-2.11-1.93-3.1-3.04-1.71-1.91-3.47-3.88-5.09-4.47-.86-.84-2.39-1.56-4.14-2.39-1.83-.86-4.34-2.04-4.66-2.97-.02-.07-.03-.13,0-.22,3.08-3.75,14.81-29.86,24.45-55.79,8.96-24.11,18.46-54.21,12.82-60.7-1.91-2.2-5.07-1.83-9.41,1.08l-.15,.13c-5.84,5.84-9.36,13.22-12.76,20.35-1.95,4.09-3.96,8.31-6.37,12.13-2.24,2.49-5.07,5.44-8.06,8.56-15.83,16.52-39.75,41.47-34.98,59.26,2.02,7.54,9,13.13,20.74,16.62,1.34,3.07-4.09,10.64-7.38,15.22-1.05,1.46-1.99,2.77-2.68,3.84-5.76-3.62-12.17-5.52-19.53-5.78,5.09-20.56,3.85-32.98-3.7-36.93-11.77-6.14-35.61,11.14-53.08,31.39C-.34,162.72-.52,182.98,.15,188.34c1.57,12.54,11.94,25.17,28.08,23.88,17.01-1.61,31.48-11.65,42.39-20.62,1.09,5.01,3.47,8.49,7.09,10.34,6.8,3.49,16.1,.32,21.93-2.44-.26,3.48-.33,10.15,2.6,11.7,1.39,.73,3.09,.24,5.04-1.46l.2-.23c2.07-3.42,3.01-7.32,3.91-11.08,.36-1.5,.74-3.05,1.19-4.56,.28-1.17,.8-1.88,1.84-2.52,9-5.57,16.52-11.44,22.99-17.97,8.8-8.82,18.19-22.21,13.06-35.99,.06-1.21,4.89-4.59,6.97-6.05,.36-.26,.72-.5,1.05-.74-1.77,7.5-.09,14.34,4.42,16.92,1.92,1.09,6.93,2.68,13.8-4.51,.75,5.3,2.52,8.22,5.27,8.71,5.79,1.02,13.42-9.96,16.25-16.11,.04-.07,.08-.14,.13-.21l.28,.08c.48,.08,.79,.24,.9,.47,.45,.86-.67,3.15-1.49,4.83-.69,1.42-1.34,2.76-1.49,3.85-.71,2.32,.55,4.13,2.18,4.74,1.65,.62,3.82,.03,4.77-2.27l.05-.15c1.55-4.45,2.4-6.91,3.28-7.72,.6-.57,1.49-.33,3.97,.45,1.5,.46,3.36,1.05,5.86,1.59,1.18,.66,4,1.13,8.71,1.89,4.36,.7,12.42,1.99,13.32,3.28-.03,.05-.09,.12-.2,.21-11.76,8.59-25.36,14.65-38.53,20.51-10.86,4.84-22.1,9.84-32.32,16.26-2.73,1.33-5.55,4.6-5.39,7.61,.06,1.13,.62,3.18,3.71,4.26l.12,.04c5.23,1.12,10.56,.13,15.72-.82,2.69-.5,5.46-1.01,8.13-1.2l1.05-.07-.29-2.38-.94,.06c-7.16,.42-13.24,.6-19.48-1.17,3.67-2.94,14.56-7.99,26.02-13.3,27.82-12.89,49.05-23.37,48.44-31.12-.17-2.15-1.87-3.83-5.17-5.1,3.62-2.18,4.14-1.74,5.05-.95,1.02,.89,2.5,2.16,6.35,2.25-.9,1.28-2.21,3.09-3.81,5.3-20.77,28.72-41.34,59.16-36.32,67.14,.85,1.35,2.31,2.04,4.34,2.04,.64,0,1.34-.07,2.1-.21l.14-.04c4.72-1.62,21.6-18.28,36.12-35.65,10.85-12.98,28.64-36.17,25.78-45.66-1.12-3.71-4.93-4.99-11.37-3.82Zm-49.83,76.41c6.65-15.8,16.68-30.2,26.39-44.13,1.72-2.47,3.44-4.93,5.1-7.35,1.82-2.34,3.29-4.58,4.59-6.55,4.33-6.59,7.2-10.95,17.6-11.74,.7,.05,.79,.33,.84,.7,.57,4.11-9.13,18.67-25.3,37.98-12.79,15.28-24.41,27.32-29.22,31.09Zm10.96-70.34c-2.94,.21-4.78-.41-5.48-1.87-1.34-2.75,1.23-8.7,5.98-13.85,3.64-3.94,7.44-6.23,10.18-6.23,.52,0,1,.09,1.44,.26,2.26,.88,3.47,4.18,3.49,9.56v.05c.38,7.13-8.27,10.5-15.61,12.08Zm-7.84-16.83l.82-.61-1.39-1.77-.75,.45c-4.42,2.65-8.38,5.49-12.3,8.85-.13-2.6-.91-5.8-2.89-6.93-.92-.52-2.45-.81-4.53,.8-.97,.58-1.71,1.79-2.49,3.08-.54,.91-1.46,2.42-1.96,2.47-.08,.02-.25-.09-.48-.33l-.1-.1c-13.16-10.67-7.46-25.15-.37-35.41,22.67-32.8,87.86-66,107.33-54.65,7.9,4.61,7.53,16.42-1.03,34.1-6.69,11.8-14.43,22.69-22.43,33.74-4.16,5.73-8.34,11.44-12.52,17.14-2.92,3.99-5.84,7.97-8.74,11.95-.55,.75-2,1.36-3.78,1.61-1.47,.21-2.94,.13-3.97-.18,.21-.24,.42-.49,.65-.74,2.09-2.39,4.46-5.09,3.57-7.29-.44-1.07-1.53-1.74-3.33-2.03-.18-9.25-3.41-12.95-6.14-14.42-3.77-2.03-8.99-1.17-14.32,2.36-7.01,4.64-13.69,13.74-13.62,22.64l-5.83-1.7c3.09-4.97,6.04-9.65,10.6-13.03Zm-37.27,24.45c-1.75-6.18,1.07-12.82,2.96-16.28,.65,.52,1.38,.99,2.09,1.44,1.42,.93,2.78,1.81,3.3,2.9-.64,1.04-1.24,2.13-1.83,3.19-1.8,3.25-3.65,6.59-6.52,8.75Zm-68.72,38.09c1.11-5.83,1.79-10.19,2.3-13.48q1.62-10.34,9.13-15.12c3.85-2.44,9.58-6.09,18.29-12.74,3.14,18.13-15.8,31.88-29.72,41.34Zm-27.22,13.64c-2.88,1.01-5.43,.8-7.38-.62-2.37-1.72-3.74-5.11-3.7-9.11,4.47-6.52,12.13-10.09,19.54-13.55,2.95-1.37,5.99-2.79,8.8-4.39-.44,2.22-.9,4.42-1.34,6.62-1.03,5.02-2.05,10.02-3.05,15.07-1.24,2.15-4.64,3.19-7.93,4.19-1.82,.55-3.54,1.07-4.94,1.79Zm-80.97-6.4c-5.2-20.31,29.71-65.29,53.57-81.7,6.47-4.45,11.92-6.74,15.86-6.74,1.61,0,2.96,.38,4.04,1.14,3.22,2.28,5.88,9.32,.41,29.82-27.52,6.47-45.78,24.12-49.62,38.32-1.64,6.05-.56,11.24,3.05,14.62,5.73,5.38,17.22,5.72,32.54,1.03-11.42,10.89-32.05,23.53-45.97,19.94-6.88-1.77-11.54-7.3-13.88-16.43Zm101.26-33.58c-.2,.7-.39,1.35-.55,2-2.9,3.14-7.22,5.31-11.41,7.42-.74,.37-1.49,.75-2.23,1.13l13.82-18.26c1.95,1.67,1.4,4.19,.37,7.71Zm-24.57-11.04c.42-1.64,.85-3.28,1.27-4.92,3.49-2.27,12.19,.71,17.55,3.69-.93,4.21-19.78,27.32-25.23,31.18,1.27-10.2,3.88-20.23,6.41-29.95Zm-12.91,29.69c-.05,1.67-.14,2.74-.87,3.25-21.37,7.53-28.51,4.69-30.85,2.33-2.5-2.51-1.79-6.44-.76-9.29,4.51-12.53,22.89-28.3,40.36-30.73-.4,1.51-.81,3.01-1.21,4.52-2.36,8.75-4.79,17.8-6.28,26.99-.32,.91-.35,1.94-.39,2.93ZM160.91,20.58c-.13,.62-.27,1.25-.4,1.87-2.93-1.64-5.85,0-8.29,1.52,2.8-5.77,5.82-11.58,10.42-16.25,.14,4.31-.77,8.48-1.73,12.86Zm-4.49,8.28c-2.6,26.05-15.26,50.07-28,73.3,.81-3.57,1.64-7.57,2.53-11.91,4.76-23.06,11.25-54.45,25.47-61.39Zm-24.95,113.72c-4.56,3.31-9.26,6.72-14.01,9.93-1.03-5.74,3.36-20.61,6.72-29.58,.07,.11,.14,.23,.19,.34,.68,1.19,2.05,3.65,5.36,2.31,2.37,.52,10.76,5.95,12.03,8.96,.08,.19,.15,.44,.1,.6-3.5,2.44-7,4.98-10.39,7.44Zm-10.29-40.31c-.84,3.68-1.67,7.36-2.52,11.04-.74-.31-1.51-.63-2.29-.95-8.34-3.44-17.79-7.34-14.81-16.85,6.26-17.95,19.29-32.86,33.6-47.6-5.71,17.9-9.91,36.41-13.98,54.36Z"/>
  </g>
</svg>